<svg width="50" height="50" viewBox="0 0 50 50" fill="none" xmlns="http://www.w3.org/2000/svg">
<g clip-path="url(#clip0)">
<path d="M25 48.077C19.076 48.077 13.69 45.825 9.604 42.156C11.858 36.794 17.096 33.889 24.977 33.889C32.866 33.889 38.116 36.933 40.385 42.307C36.301 45.966 30.914 48.077 25 48.077ZM25.278 12.777C30.205 12.777 33.889 16.589 33.889 21.655C33.889 26.865 30.014 31.111 25.278 31.111C20.542 31.111 16.667 26.865 16.667 21.655C16.667 16.589 20.351 12.777 25.278 12.777V12.777ZM25 0C11.193 0 0 11.193 0 25C0 25.915 0.056 26.816 0.152 27.705C0.184 28 0.243 28.286 0.285 28.578C0.37 29.167 0.458 29.754 0.583 30.329C0.656 30.667 0.752 30.994 0.839 31.326C0.974 31.841 1.112 32.353 1.278 32.855C1.392 33.197 1.521 33.53 1.648 33.865C1.828 34.341 2.017 34.81 2.225 35.271C2.374 35.602 2.533 35.928 2.697 36.251C2.922 36.697 3.16 37.134 3.411 37.564C3.593 37.876 3.776 38.183 3.971 38.486C4.243 38.909 4.531 39.318 4.827 39.723C5.034 40.007 5.237 40.291 5.456 40.564C5.781 40.972 6.127 41.36 6.476 41.746C6.696 41.99 6.908 42.24 7.138 42.474C7.543 42.889 7.971 43.275 8.403 43.66C8.576 43.814 8.732 43.985 8.91 44.135L8.914 44.124C13.412 47.9241 19.1117 50.0061 25 50C30.8807 50.0067 36.5736 47.9302 41.069 44.139C41.0701 44.1423 41.0711 44.1456 41.072 44.149C41.244 44.005 41.396 43.84 41.562 43.691C42.004 43.299 42.442 42.904 42.855 42.482C43.083 42.25 43.292 42.003 43.51 41.762C43.862 41.373 44.211 40.982 44.538 40.571C44.756 40.299 44.959 40.015 45.165 39.733C45.462 39.328 45.752 38.917 46.024 38.493C46.6812 37.4632 47.2653 36.3886 47.772 35.277C47.98 34.816 48.17 34.347 48.351 33.871C48.478 33.535 48.607 33.202 48.72 32.859C48.887 32.357 49.025 31.845 49.16 31.329C49.247 30.997 49.343 30.67 49.416 30.333C49.542 29.757 49.63 29.169 49.715 28.579C49.757 28.287 49.816 28.002 49.848 27.707C49.943 26.817 50 25.916 50 25C50 11.193 38.807 0 25 0Z" fill="black"/>
</g>
<defs>
<clipPath id="clip0">
<rect width="50" height="50" fill="white"/>
</clipPath>
</defs>
</svg>
